<svg aria-hidden="true" style="position: absolute; width: 0; height: 0; overflow: hidden;" version="1.1" xmlns="http://www.w3.org/2000/svg" xmlns:xlink="http://www.w3.org/1999/xlink">
<defs>

<symbol id="icon-advantages_1" viewBox="0 0 32 32">
<path d="M2.764 31.285c3.404 0 23.098 0 26.498 0 0.131-3.009-0.085-8.001-1.943-10.377l-0.067-0.085-4.060-2.030c0.088-0.296 0.132-0.567 0.149-0.767 0.020-0.239-0.013-0.464-0.099-0.668-0.67-1.596-2.087-2.436-2.867-2.793 0.238-0.477 0.391-0.988 0.465-1.511 0.441-0.124 0.796-0.472 0.913-0.937l0.474-1.917c0.084-0.338 0.031-0.689-0.149-0.987-0.078-0.129-0.178-0.237-0.291-0.329 1.336-3.022-0.902-5.871-1.024-6.021-2.424-2.609-5.485-2.121-5.647-2.092-4.418 0.921-6.123 4.293-5.161 8.247-0.285 0.315-0.405 0.753-0.299 1.182l0.476 1.919c0.115 0.461 0.468 0.808 0.906 0.933 0.135 0.957 0.542 1.823 1.14 2.521v1.52c-6.34 3.233-2.323 1.17-7.404 3.73-0.010 0.048-2.384 2.56-2.031 10.007l0.021 0.455zM28.341 30.329h-4.361v-1.824l2.884-6.575c1.445 2.388 1.499 6.948 1.477 8.399zM22.389 17.944c-0.168 1.925-1.228 1.343-1.883 2.826-0.515-0.564-0.67-1.239-0.531-1.963 0.25-1.328-0.564-1.723-0.363-3.119l0.030-0.032v-0.004c0.017-0.019 0.178-0.21 0.224-0.27 1.725 0.749 2.556 2.142 2.522 2.562zM13.133 16.431c0.801 0.553 1.768 0.88 2.808 0.88 0.979 0 1.91-0.284 2.707-0.806 0.111 1.097 0.541 1.317 0.388 2.124-0.029 0.15-0.044 0.298-0.053 0.443l-2.97 3.333-3.797-4.262 0.916-0.477v-1.236zM11.939 12.352v-1.848c0-0.681 0-3.38 0-3.247 0.462-0.851 1.092-1.469 1.875-1.839 2.097 1.182 4.512 2.945 6.131 4.72-0.002 2.26 0.006 2.266-0.009 2.452l-0.001 0.012c-0.126 2.052-1.821 3.754-3.995 3.754-2.113 0-3.867-1.652-3.994-3.774-0.007-0.076-0.008-0.152-0.008-0.23zM11.348 18.604l4.666 5.237 3.132-3.515c0.072 0.205 0.172 0.399 0.287 0.586l-3.419 4.258-5.099-6.35 0.433-0.216zM20.9 11.584v-1.476c0.042-0.048 0.398-0.454 0.356-0.407 0.020 0.747 0.101-0.135-0.356 1.882zM15.293 1.708c0.19 0.012 2.736-0.386 4.748 1.778 0.079 0.099 1.717 2.2 1.059 4.499-0.225-1.023-0.618-2.334-1.238-2.959l-0.678 0.673c0.613 0.618 1.015 2.499 1.168 3.475-2.81-2.928-6.435-4.781-6.484-4.812-0.182 0.113-1.716 0.403-2.83 2.559l-0.053 0.103v1.583c-0.048 0.001-0.188 0.002-0.14 0.002-0.708-3.403 0.648-6.106 4.449-6.899zM10.743 9.59l0.241 0.972v1.022l-0.401-1.615c-0.059-0.241 0.12-0.332 0.16-0.38zM10.040 19.258l5.973 7.438 4.041-5.033c0.44 0.392 0.651 0.447 1.583 0.925l-0.314-1.062c-0.080-0.27 0.236-0.702 0.427-0.901 0.426-0.23 0.781-0.558 1.046-0.963l3.297 1.649-3.068 6.994v2.024h-14.024v-2.024l-3.069-6.993 4.109-2.054zM5.161 21.933l2.885 6.573v1.824h-4.361c-0.022-1.451 0.032-6.008 1.476-8.397z"></path>
</symbol>

<symbol id="icon-advantages_2" viewBox="0 0 32 32">
<path d="M29.014 0.835h-14.806c-0.964 0-1.748 0.784-1.748 1.748v6.129l-11 4.617c-0.125 0.052-0.209 0.17-0.219 0.305s0.057 0.264 0.173 0.333l1.403 0.84v8.947c-0.717 0.164-1.256 0.806-1.256 1.574v0.862c0 0.198 0.16 0.358 0.358 0.358h2.512c0.198 0 0.358-0.16 0.358-0.358v-0.862c0-0.767-0.538-1.408-1.256-1.573v-8.519l1.109 0.664c-0.034 0.256-0.004-0.446-0.016 4.165 0 1.516 3.882 2.328 7.833 2.374v6.982c0 0.361 0.11 0.696 0.299 0.974 0.314 0.465 0.846 0.771 1.448 0.771h14.806c0.963 0 1.746-0.784 1.746-1.746-0 0.048-0.002-1.479 0-26.836 0-0.951-0.786-1.748-1.745-1.748zM4.074 25.326v0.504h-1.795v-0.504c0-0.496 0.402-0.9 0.896-0.9 0.496 0 0.9 0.404 0.9 0.9zM29.014 30.447h-14.806c-0.355 0-0.669-0.18-0.855-0.453-0.111-0.164-0.176-0.362-0.176-0.575v-2.42h16.864v2.421c0 0.561-0.468 1.027-1.027 1.027zM30.041 26.282h-16.864v-3.842c1.929-0.022 7.837-0.447 7.837-2.376-0.002-2.897 0.005-4.071-0.009-4.171l3.217-1.927c0.116-0.069 0.183-0.198 0.173-0.333s-0.094-0.252-0.219-0.305l-10.999-4.617v-2.992h16.864v20.563zM12.818 17.685c-1.987 0-5.813 0.257-7.475 1.342 0.011-3.319-0.115-3.103 0.294-3.385 1.032-0.76 3.985-1.291 7.181-1.291 1.394 0 7.479 0.383 7.479 1.672v3.005c-1.678-1.095-5.484-1.342-7.479-1.342zM13.177 2.583c0-0.568 0.462-1.030 1.030-1.030h14.806c0.568 0 1.028 0.468 1.028 1.030v2.42h-16.864v-2.42zM12.818 9.338l10.428 4.377-2.584 1.546c-1.374-1.362-5.918-1.626-7.844-1.626-1.929 0-6.473 0.265-7.844 1.627l-2.585-1.547 10.429-4.377zM5.344 20.063c0-0.58 2.567-1.662 7.475-1.662 4.91 0 7.479 1.082 7.479 1.662s-2.569 1.662-7.479 1.662c-4.907 0-7.475-1.082-7.475-1.662z"></path>
<path d="M21.61 27.539c-0.653 0-1.185 0.531-1.185 1.185s0.531 1.185 1.185 1.185c0.653 0 1.185-0.532 1.185-1.185s-0.531-1.185-1.185-1.185zM21.61 29.192c-0.258 0-0.468-0.21-0.468-0.469s0.21-0.468 0.468-0.468c0.258 0 0.469 0.21 0.469 0.468s-0.21 0.469-0.469 0.469z"></path>
</symbol>

<symbol id="icon-advantages_3" viewBox="0 0 27 32">
<path d="M0.524 13.289c0 0.345-0.524 0.345-0.524 0 0-7.338 5.951-13.289 13.289-13.289 7.341 0 13.289 5.951 13.289 13.289 0 0.345-0.521 0.345-0.521 0 0-4.96-8.151-4.963-8.151 0 0 0.345-0.536 0.345-0.536 0 0-4.947-8.163-4.947-8.163 0 0 0.345-0.536 0.345-0.536 0 0-4.938-8.147-4.973-8.147 0zM8.718 11.363c0.141-2.855 0.59-5.415 1.242-7.369 0.521-1.553 1.18-2.733 1.926-3.394-5.603 0.612-10.14 4.86-11.153 10.369 1.929-2.783 6.384-2.56 7.984 0.395zM17.33 11.235c-0.144-2.745-0.58-5.202-1.208-7.074-1.619-4.847-4.047-4.847-5.666 0-0.627 1.873-1.060 4.329-1.208 7.074 1.741-2.958 6.34-2.958 8.082 0zM25.845 10.968c-1.010-5.509-5.547-9.757-11.153-10.369 0.75 0.662 1.405 1.842 1.926 3.394 0.653 1.955 1.101 4.515 1.242 7.369 1.609-2.971 6.077-3.147 7.984-0.395z"></path>
<path d="M11.545 19.369v-2.698c-0.486 0.323-0.869 0.822-0.869 1.431 0 0.593 0.389 0.985 0.869 1.267zM12.069 20.207c-0.932-0.427-1.914-0.925-1.914-2.105 0-1.217 0.925-1.826 1.914-2.281v4.386z"></path>
<path d="M15.034 23.442v2.729c0.493-0.326 0.878-0.828 0.878-1.437 0-0.599-0.395-1.004-0.878-1.293zM14.513 22.601c0.935 0.433 1.923 0.947 1.923 2.133 0 1.22-0.932 1.829-1.923 2.281v-4.414z"></path>
<path d="M15.034 13.6c2.146 0.496 4.351 2.102 4.351 4.502 0 2.055-3.473 1.98-3.473 0 0-0.612-0.386-1.114-0.878-1.437v3.84c1.986 0.649 4.358 1.813 4.358 4.229 0 2.403-2.206 4.006-4.358 4.499-0.009 2.287-3.482 2.284-3.489-0.003-1.224-0.282-2.287-0.853-3.056-1.609-0.806-0.797-1.283-1.798-1.283-2.886 0-2.024 3.47-2.024 3.47 0 0 0.605 0.383 1.104 0.869 1.427v-3.837c-1.97-0.637-4.354-1.835-4.354-4.229 0-2.403 2.206-4.006 4.354-4.499 0.009-2.287 3.482-2.284 3.489 0.003zM12.069 13.606v0.417c-2.042 0.405-4.358 1.713-4.358 4.072 0 2.268 2.541 3.285 4.358 3.846v5.070c-0.982-0.449-1.914-1.054-1.914-2.278 0-1.336-2.428-1.336-2.428 0 0 0.944 0.42 1.816 1.129 2.513 0.9 0.891 1.992 1.314 3.213 1.556v0.42c0 1.609 2.444 1.609 2.444 0v-0.417c2.049-0.408 4.354-1.716 4.354-4.072 0-2.29-2.535-3.275-4.354-3.849v-5.067c0.985 0.449 1.923 1.054 1.923 2.284 0 1.302 2.425 1.355 2.425 0 0-2.356-2.303-3.667-4.348-4.075v-0.42c0-1.609-2.444-1.609-2.444 0z"></path>
</symbol>
</defs>
</svg>
