<svg aria-hidden="true" style="position:absolute;width:0;height:0" xmlns="http://www.w3.org/2000/svg" overflow="hidden"><defs><symbol id="icon-advantages_1" viewBox="0 0 32 32"><path d="M2.764 31.285h26.498c.131-3.009-.085-8.001-1.943-10.377l-.067-.085-4.06-2.03c.088-.296.132-.567.149-.767a1.402 1.402 0 00-.099-.668c-.67-1.596-2.087-2.436-2.867-2.793.238-.477.391-.988.465-1.511.441-.124.796-.472.913-.937l.474-1.917a1.277 1.277 0 00-.44-1.316c1.336-3.022-.902-5.871-1.024-6.021C18.339.254 15.278.742 15.116.771c-4.418.921-6.123 4.293-5.161 8.247a1.294 1.294 0 00-.299 1.182l.476 1.919c.115.461.468.808.906.933a4.926 4.926 0 001.14 2.521v1.52c-6.34 3.233-2.323 1.17-7.404 3.73-.01.048-2.384 2.56-2.031 10.007l.021.455zm25.577-.956H23.98v-1.824l2.884-6.575c1.445 2.388 1.499 6.948 1.477 8.399zm-5.952-12.385c-.168 1.925-1.228 1.343-1.883 2.826-.515-.564-.67-1.239-.531-1.963.25-1.328-.564-1.723-.363-3.119l.03-.032v-.004c.017-.019.178-.21.224-.27 1.725.749 2.556 2.142 2.522 2.562zm-9.256-1.513a4.929 4.929 0 005.515.074c.111 1.097.541 1.317.388 2.124-.029.15-.044.298-.053.443l-2.97 3.333-3.797-4.262.916-.477V16.43zm-1.194-4.079V7.257c.462-.851 1.092-1.469 1.875-1.839 2.097 1.182 4.512 2.945 6.131 4.72-.002 2.26.006 2.266-.009 2.452l-.001.012a4 4 0 01-3.995 3.754 4.008 4.008 0 01-4.002-4.004zm-.591 6.252l4.666 5.237 3.132-3.515c.072.205.172.399.287.586l-3.419 4.258-5.099-6.35.433-.216zm9.552-7.02v-1.476l.356-.407c.02.747.101-.135-.356 1.882zm-5.607-9.876c.19.012 2.736-.386 4.748 1.778.079.099 1.717 2.2 1.059 4.499-.225-1.023-.618-2.334-1.238-2.959l-.678.673c.613.618 1.015 2.499 1.168 3.475-2.81-2.928-6.435-4.781-6.484-4.812-.182.113-1.716.403-2.83 2.559l-.053.103v1.583l-.14.002c-.708-3.403.648-6.106 4.449-6.899zm-4.55 7.882l.241.972v1.022l-.401-1.615c-.059-.241.12-.332.16-.38zm-.703 9.668l5.973 7.438 4.041-5.033c.44.392.651.447 1.583.925l-.314-1.062c-.08-.27.236-.702.427-.901.426-.23.781-.558 1.046-.963l3.297 1.649-3.068 6.994v2.024H9.001v-2.024l-3.069-6.993 4.109-2.054zm-4.879 2.675l2.885 6.573v1.824H3.685c-.022-1.451.032-6.008 1.476-8.397z"/></symbol><symbol id="icon-advantages_2" viewBox="0 0 32 32"><path d="M29.014.835H14.208a1.75 1.75 0 00-1.748 1.748v6.129l-11 4.617a.358.358 0 00-.046.638l1.403.84v8.947a1.618 1.618 0 00-1.256 1.574v.862c0 .198.16.358.358.358h2.512c.198 0 .358-.16.358-.358v-.862c0-.767-.538-1.408-1.256-1.573v-8.519l1.109.664c-.034.256-.004-.446-.016 4.165 0 1.516 3.882 2.328 7.833 2.374v6.982a1.746 1.746 0 001.747 1.745h14.806c.963 0 1.746-.784 1.746-1.746 0 .048-.002-1.479 0-26.836 0-.951-.786-1.748-1.745-1.748zM4.074 25.326v.504H2.279v-.504a.9.9 0 01.896-.9c.496 0 .9.404.9.9zm24.94 5.121H14.208c-.355 0-.669-.18-.855-.453a1.023 1.023 0 01-.176-.575v-2.42h16.864v2.421c0 .561-.468 1.027-1.027 1.027zm1.027-4.165H13.177V22.44c1.929-.022 7.837-.447 7.837-2.376-.002-2.897.005-4.071-.009-4.171l3.217-1.927a.36.36 0 00-.046-.638L13.177 8.711V5.719h16.864v20.563zm-17.223-8.597c-1.987 0-5.813.257-7.475 1.342.011-3.319-.115-3.103.294-3.385 1.032-.76 3.985-1.291 7.181-1.291 1.394 0 7.479.383 7.479 1.672v3.005c-1.678-1.095-5.484-1.342-7.479-1.342zm.359-15.102c0-.568.462-1.03 1.03-1.03h14.806c.568 0 1.028.468 1.028 1.03v2.42H13.177v-2.42zm-.359 6.755l10.428 4.377-2.584 1.546c-1.374-1.362-5.918-1.626-7.844-1.626-1.929 0-6.473.265-7.844 1.627l-2.585-1.547 10.429-4.377zM5.344 20.063c0-.58 2.567-1.662 7.475-1.662 4.91 0 7.479 1.082 7.479 1.662s-2.569 1.662-7.479 1.662c-4.907 0-7.475-1.082-7.475-1.662z"/><path d="M21.61 27.539a1.186 1.186 0 000 2.37 1.186 1.186 0 000-2.37zm0 1.653a.469.469 0 11.002-.938.469.469 0 01-.002.938z"/></symbol><symbol id="icon-advantages_3" viewBox="0 0 27 32"><path d="M.524 13.289c0 .345-.524.345-.524 0C0 5.951 5.951 0 13.289 0c7.341 0 13.289 5.951 13.289 13.289 0 .345-.521.345-.521 0 0-4.96-8.151-4.963-8.151 0 0 .345-.536.345-.536 0 0-4.947-8.163-4.947-8.163 0 0 .345-.536.345-.536 0 0-4.938-8.147-4.973-8.147 0zm8.194-1.926c.141-2.855.59-5.415 1.242-7.369.521-1.553 1.18-2.733 1.926-3.394C6.283 1.212 1.746 5.46.733 10.969c1.929-2.783 6.384-2.56 7.984.395zm8.612-.128c-.144-2.745-.58-5.202-1.208-7.074-1.619-4.847-4.047-4.847-5.666 0-.627 1.873-1.06 4.329-1.208 7.074 1.741-2.958 6.34-2.958 8.082 0zm8.515-.267A12.77 12.77 0 0014.692.599c.75.662 1.405 1.842 1.926 3.394.653 1.955 1.101 4.515 1.242 7.369 1.609-2.971 6.077-3.147 7.984-.395zm-14.3 8.401v-2.698c-.486.323-.869.822-.869 1.431 0 .593.389.985.869 1.267zm.524.838c-.932-.427-1.914-.925-1.914-2.105 0-1.217.925-1.826 1.914-2.281v4.386zm2.965 3.235v2.729c.493-.326.878-.828.878-1.437 0-.599-.395-1.004-.878-1.293zm-.521-.841c.935.433 1.923.947 1.923 2.133 0 1.22-.932 1.829-1.923 2.281v-4.414z"/><path d="M15.034 13.6c2.146.496 4.351 2.102 4.351 4.502 0 2.055-3.473 1.98-3.473 0 0-.612-.386-1.114-.878-1.437v3.84c1.986.649 4.358 1.813 4.358 4.229 0 2.403-2.206 4.006-4.358 4.499-.009 2.287-3.482 2.284-3.489-.003-1.224-.282-2.287-.853-3.056-1.609-.806-.797-1.283-1.798-1.283-2.886 0-2.024 3.47-2.024 3.47 0 0 .605.383 1.104.869 1.427v-3.837c-1.97-.637-4.354-1.835-4.354-4.229 0-2.403 2.206-4.006 4.354-4.499.009-2.287 3.482-2.284 3.489.003zm-2.965.006v.417c-2.042.405-4.358 1.713-4.358 4.072 0 2.268 2.541 3.285 4.358 3.846v5.07c-.982-.449-1.914-1.054-1.914-2.278 0-1.336-2.428-1.336-2.428 0 0 .944.42 1.816 1.129 2.513.9.891 1.992 1.314 3.213 1.556v.42c0 1.609 2.444 1.609 2.444 0v-.417c2.049-.408 4.354-1.716 4.354-4.072 0-2.29-2.535-3.275-4.354-3.849v-5.067c.985.449 1.923 1.054 1.923 2.284 0 1.302 2.425 1.355 2.425 0 0-2.356-2.303-3.667-4.348-4.075v-.42c0-1.609-2.444-1.609-2.444 0z"/></symbol></defs></svg>